<?xml version="1.0" encoding="UTF-8"?>
<svg id="Layer_1" data-name="Layer 1" xmlns="http://www.w3.org/2000/svg" viewBox="0 0 1550.53 351.19">
  <defs>
    <style>
      .cls-1 {
        fill: #5a9cb5;
      }

      .cls-2 {
        fill: #faac68;
      }

      .cls-3 {
        fill: #fa6868;
      }
    </style>
  </defs>
  <g>
    <path class="cls-2" d="M418.18,43.25v109.7c-54.78,2.62-82.71,20.41-83.82,53.42h-69.06c-1.31-17.36-8.68-30.54-22.12-39.58-13.44-9.03-31.65-13.54-54.62-13.54V49.73c27.99,0,51.06,3.67,69.22,10.99,18.16,7.32,33.2,18.75,45.14,34.31,23.87-31.3,62.29-48.55,115.26-51.77Z"/>
    <rect class="cls-3" x="261.61" y="151.37" width="83.16" height="229.98" transform="translate(36.84 569.55) rotate(-90)"/>
  </g>
  <g>
    <path class="cls-1" d="M555.24,102.91v48.62c11-.83,19.35-5.5,25.07-14.01,5.72-8.52,8.58-20.05,8.58-34.61h65.59c0,17.73-2.32,32.35-6.96,43.86-4.64,11.5-11.89,21.04-21.74,28.6,19.83,15.13,30.76,39.47,32.8,73.03h-69.5c-1.65-34.7-12.93-52.4-33.85-53.1v53.1h-64.35V102.91h64.35Z"/>
    <path class="cls-1" d="M731.62,133.61v114.79h-58.92v-114.79c7.75,4.39,17.83,6.58,30.22,6.58,11.5,0,21.07-2.19,28.7-6.58ZM714.65,133.99c-4.58,0-8.52-1.65-11.82-4.96-3.31-3.31-4.96-7.25-4.96-11.82s1.65-8.49,4.96-11.73c3.31-3.24,7.25-4.86,11.82-4.86s8.49,1.62,11.73,4.86,4.86,7.15,4.86,11.73-1.62,8.52-4.86,11.82-7.15,4.96-11.73,4.96Z"/>
    <path class="cls-1" d="M888.26,102.91v145.49h-70.07c-21.42,0-38.04-5.53-49.86-16.59s-17.73-24.98-17.73-41.76,5.39-29.98,16.16-40.95,24.2-16.45,40.28-16.45c8.9,0,16.3,1.37,22.21,4.1v-33.85h59.01ZM829.25,206.63v-25.84c-2.92-1.91-6.23-2.86-9.92-2.86-3.5,0-6.39,1.38-8.68,4.15s-3.43,6.24-3.43,10.44c0,4.89,1.38,8.47,4.15,10.73,2.76,2.26,7.17,3.38,13.2,3.38h4.67Z"/>
    <path class="cls-1" d="M1039.94,102.91v145.49h-70.07c-21.42,0-38.04-5.53-49.86-16.59-11.82-11.06-17.73-24.98-17.73-41.76s5.39-29.98,16.16-40.95c10.77-10.96,24.2-16.45,40.28-16.45,8.9,0,16.3,1.37,22.21,4.1v-33.85h59.01ZM980.93,206.63v-25.84c-2.92-1.91-6.23-2.86-9.92-2.86-3.5,0-6.39,1.38-8.68,4.15s-3.43,6.24-3.43,10.44c0,4.89,1.38,8.47,4.15,10.73,2.76,2.26,7.17,3.38,13.2,3.38h4.67Z"/>
    <path class="cls-1" d="M1121.27,133.61v114.79h-58.92v-114.79c7.75,4.39,17.83,6.58,30.22,6.58,11.5,0,21.07-2.19,28.7-6.58ZM1104.3,133.99c-4.58,0-8.52-1.65-11.82-4.96s-4.96-7.25-4.96-11.82,1.65-8.49,4.96-11.73,7.25-4.86,11.82-4.86,8.49,1.62,11.73,4.86,4.86,7.15,4.86,11.73-1.62,8.52-4.86,11.82-7.15,4.96-11.73,4.96Z"/>
    <path class="cls-1" d="M1241.58,168.31v24.22h-33.37v55.87h-59.01v-55.87h-12.68v-24.22h12.68c0-21.29,5.61-37.9,16.83-49.81s26.65-17.88,46.29-17.88c8.2,0,17.96,1.43,29.27,4.29v57.77c-5.72-6.93-11.92-10.39-18.59-10.39-4.64,0-8.26,1.46-10.87,4.39-2.61,2.92-3.91,6.8-3.91,11.63h33.37Z"/>
    <path class="cls-1" d="M1323.96,280.62h-64.07l23.64-55.87-40.42-91.14h58.63l13.82,30.6,13.25-30.6h57.2l-62.07,147.01Z"/>
  </g>
</svg>